<svg width="194" height="194" fill="none" xmlns="http://www.w3.org/2000/svg"><g filter="url(#prefix__filter0_d_196_21353)" fill="#04395E"><path d="M190.006 88.863C186.894 41.585 149.091 3.783 101.813.67v26.602c32.624 2.995 58.596 28.968 61.592 61.59h26.601zM27.593 88.863C30.59 56.24 56.562 30.267 89.185 27.272V.67C41.907 3.782 4.105 41.585.992 88.863h26.601zM.992 101.491h26.601c2.996 32.624 28.969 58.597 61.592 61.592v26.601C41.907 186.572 4.104 148.77.992 101.491zM163.405 101.491h26.601c-3.112 47.278-40.915 85.081-88.193 88.193v-26.601c32.624-2.995 58.596-28.968 61.592-61.592z"/></g><defs><filter id="prefix__filter0_d_196_21353" x=".992" y=".67" width="192.792" height="192.794" filterUnits="userSpaceOnUse" color-interpolation-filters="sRGB"><feFlood flood-opacity="0" result="BackgroundImageFix"/><feColorMatrix in="SourceAlpha" values="0 0 0 0 0 0 0 0 0 0 0 0 0 0 0 0 0 0 127 0" result="hardAlpha"/><feOffset dx="1.89" dy="1.89"/><feGaussianBlur stdDeviation=".945"/><feComposite in2="hardAlpha" operator="out"/><feColorMatrix values="0 0 0 0 0.0156863 0 0 0 0 0.223529 0 0 0 0 0.368627 0 0 0 0.32 0"/><feBlend in2="BackgroundImageFix" result="effect1_dropShadow_196_21353"/><feBlend in="SourceGraphic" in2="effect1_dropShadow_196_21353" result="shape"/></filter></defs></svg>