<svg width="194" height="194" fill="none" xmlns="http://www.w3.org/2000/svg"><g filter="url(#prefix__filter0_d_184_1848)" fill="#04395E"><path d="M190.008 88.863C186.896 41.585 149.093 3.783 101.815.67v26.602c32.624 2.995 58.596 28.968 61.592 61.59h26.601zM27.595 88.863C30.59 56.24 56.563 30.267 89.187 27.272V.67C41.909 3.782 4.106 41.585.994 88.863h26.601zM.994 101.491h26.601c2.995 32.624 28.968 58.597 61.592 61.592v26.601C41.909 186.572 4.106 148.77.994 101.491zM163.407 101.491h26.601c-3.112 47.278-40.915 85.081-88.193 88.193v-26.601c32.624-2.995 58.596-28.968 61.592-61.592z"/></g><defs><filter id="prefix__filter0_d_184_1848" x=".994" y=".67" width="192.794" height="192.794" filterUnits="userSpaceOnUse" color-interpolation-filters="sRGB"><feFlood flood-opacity="0" result="BackgroundImageFix"/><feColorMatrix in="SourceAlpha" values="0 0 0 0 0 0 0 0 0 0 0 0 0 0 0 0 0 0 127 0" result="hardAlpha"/><feOffset dx="1.89" dy="1.89"/><feGaussianBlur stdDeviation=".945"/><feComposite in2="hardAlpha" operator="out"/><feColorMatrix values="0 0 0 0 0.0156863 0 0 0 0 0.223529 0 0 0 0 0.368627 0 0 0 0.32 0"/><feBlend in2="BackgroundImageFix" result="effect1_dropShadow_184_1848"/><feBlend in="SourceGraphic" in2="effect1_dropShadow_184_1848" result="shape"/></filter></defs></svg>